<svg id="Capa_1" style="fill: #9A5E37;" enable-background="new 0 0 511.883 511.883" height="512" viewBox="0 0 511.883 511.883" width="512" xmlns="http://www.w3.org/2000/svg"><g><path d="m240.883 30.118h-97.941v-15.118c0-8.284-6.716-15-15-15s-15 6.716-15 15v15.118h-97.942c-8.284 0-15 6.716-15 15v256c0 8.284 6.716 15 15 15h62.493l-4.167 30.235h-28.208c-8.284 0-15 6.716-15 15s6.716 15 15 15h24.072l-16.348 118.478c-1.238 8.97 5.714 17.052 14.878 17.052 7.374 0 13.804-5.441 14.84-12.952l16.913-122.579h56.936l16.913 122.579c1.13 8.191 8.684 13.941 16.91 12.809 8.207-1.132 13.941-8.703 12.809-16.91l-16.348-118.478h24.072c8.284 0 15-6.716 15-15s-6.716-15-15-15h-28.209l-4.167-30.235h62.493c8.284 0 15-6.716 15-15v-256c.001-8.284-6.715-14.999-14.999-14.999zm-88.61 316.235h-48.663l4.167-30.235h40.33zm73.61-60.235h-195.883v-226h195.883z"/><path d="m496.883 338.824h-30.177v-22.647c0-29.201-15.214-54.898-38.118-69.635 46.858-41.202 17.47-118.542-44.646-118.542-62.161 0-91.48 77.36-44.646 118.542-22.904 14.737-38.118 40.434-38.118 69.635v22.647h-30.178c-8.284 0-15 6.716-15 15v143.059c0 8.284 6.716 15 15 15h225.883c8.284 0 15-6.716 15-15v-143.059c0-8.284-6.716-15-15-15zm-150.647-143.118c0-20.791 16.915-37.706 37.706-37.706s37.706 16.915 37.706 37.706-16.915 37.706-37.706 37.706-37.706-16.915-37.706-37.706zm-15.059 120.471c0-29.095 23.67-52.765 52.765-52.765s52.765 23.67 52.765 52.765v22.647h-105.53zm150.706 52.647v30.235h-195.883v-30.235zm-195.883 60.235h82.941v52.824h-82.941zm112.942 52.824v-52.824h82.941v52.824z"/><path d="m112.824 165.647v-37.706c0-8.284-6.716-15-15-15s-15 6.716-15 15v37.706h-7.588c-8.284 0-15 6.716-15 15s6.716 15 15 15h105.412c8.284 0 15-6.716 15-15s-6.716-15-15-15h-7.588v-60.294c0-8.284-6.716-15-15-15s-15 6.716-15 15v60.294z"/><path d="m180.648 225.883h-105.412c-8.284 0-15 6.716-15 15s6.716 15 15 15h105.412c8.284 0 15-6.716 15-15s-6.716-15-15-15z"/></g></svg>